name rise32.9588peak41.5061fall63.4684.mot
datacolumns 19
datarows 15
range 5.05998200000000 5.08331700000000
endheader
time	ground_force1_vx	ground_force1_vy	ground_force1_vz	ground_force1_px	ground_force1_py	ground_force1_pz	ground_force2_vx	ground_force2_vy	ground_force2_vz	ground_force2_px	ground_force2_py	ground_force2_pz	ground_torque1_x	ground_torque1_y	ground_torque1_z	ground_torque2_x	ground_torque2_y	ground_torque2_z	
5.05998200000000	5.40238800000000	708.12041399999998	43.66620500000000	0.20667800000000	0.00000000000000	0.11336900000000	0.00000000000000	0.00000000000000	0.00000000000000	0.00000000000000	0.00000000000000	0.00000000000000	0.00000000000000	17.01684500000000	0.00000000000000	0.00000000000000	0.00000000000000	0.00000000000000	
5.06165000000000	5.01334000000000	709.14835000000005	43.69892900000000	0.20595700000000	0.00000000000000	0.11334500000000	0.00000000000000	0.00000000000000	0.00000000000000	0.00000000000000	0.00000000000000	0.00000000000000	0.00000000000000	17.09074300000000	0.00000000000000	0.00000000000000	0.00000000000000	0.00000000000000	
5.06331700000000	4.61531800000000	710.22752500000001	43.73540300000000	0.20521100000000	0.00000000000000	0.11332200000000	0.00000000000000	0.00000000000000	0.00000000000000	0.00000000000000	0.00000000000000	0.00000000000000	0.00000000000000	17.16669400000000	0.00000000000000	0.00000000000000	0.00000000000000	0.00000000000000	
5.06498100000000	4.20798900000000	711.35667300000000	43.77567900000000	0.20443900000000	0.00000000000000	0.11330000000000	0.00000000000000	0.00000000000000	0.00000000000000	0.00000000000000	0.00000000000000	0.00000000000000	0.00000000000000	17.24471100000000	0.00000000000000	0.00000000000000	0.00000000000000	0.00000000000000	
5.06664500000000	3.79106600000000	712.53451500000006	43.81980300000000	0.20363900000000	0.00000000000000	0.11327900000000	0.00000000000000	0.00000000000000	0.00000000000000	0.00000000000000	0.00000000000000	0.00000000000000	0.00000000000000	17.32480300000000	0.00000000000000	0.00000000000000	0.00000000000000	0.00000000000000	
5.06831100000000	3.36430600000000	713.75976600000001	43.86782300000000	0.20281300000000	0.00000000000000	0.11326000000000	0.00000000000000	0.00000000000000	0.00000000000000	0.00000000000000	0.00000000000000	0.00000000000000	0.00000000000000	17.40698000000000	0.00000000000000	0.00000000000000	0.00000000000000	0.00000000000000	
5.06998500000000	2.92751300000000	715.03113499999995	43.91978200000000	0.20196000000000	0.00000000000000	0.11324100000000	0.00000000000000	0.00000000000000	0.00000000000000	0.00000000000000	0.00000000000000	0.00000000000000	0.00000000000000	17.49124400000000	0.00000000000000	0.00000000000000	0.00000000000000	0.00000000000000	
5.07165100000000	2.48053800000000	716.34733000000006	43.97572100000000	0.20108000000000	0.00000000000000	0.11322300000000	0.00000000000000	0.00000000000000	0.00000000000000	0.00000000000000	0.00000000000000	0.00000000000000	0.00000000000000	17.57759800000000	0.00000000000000	0.00000000000000	0.00000000000000	0.00000000000000	
5.07331500000000	2.02327900000000	717.70706199999995	44.03567900000000	0.20017300000000	0.00000000000000	0.11320700000000	0.00000000000000	0.00000000000000	0.00000000000000	0.00000000000000	0.00000000000000	0.00000000000000	0.00000000000000	17.66603700000000	0.00000000000000	0.00000000000000	0.00000000000000	0.00000000000000	
5.07498300000000	1.55568500000000	719.10904600000003	44.09968900000000	0.19924000000000	0.00000000000000	0.11319200000000	0.00000000000000	0.00000000000000	0.00000000000000	0.00000000000000	0.00000000000000	0.00000000000000	0.00000000000000	17.75655400000000	0.00000000000000	0.00000000000000	0.00000000000000	0.00000000000000	
5.07665200000000	1.07775100000000	720.55200300000001	44.16778600000000	0.19828200000000	0.00000000000000	0.11317700000000	0.00000000000000	0.00000000000000	0.00000000000000	0.00000000000000	0.00000000000000	0.00000000000000	0.00000000000000	17.84913600000000	0.00000000000000	0.00000000000000	0.00000000000000	0.00000000000000	
5.07831900000000	0.58952100000000	722.03466100000003	44.23999700000000	0.19730000000000	0.00000000000000	0.11316400000000	0.00000000000000	0.00000000000000	0.00000000000000	0.00000000000000	0.00000000000000	0.00000000000000	0.00000000000000	17.94376600000000	0.00000000000000	0.00000000000000	0.00000000000000	0.00000000000000	
5.07998000000000	0.09109000000000	723.55575999999996	44.31634800000000	0.19629400000000	0.00000000000000	0.11315200000000	0.00000000000000	0.00000000000000	0.00000000000000	0.00000000000000	0.00000000000000	0.00000000000000	0.00000000000000	18.04041900000000	0.00000000000000	0.00000000000000	0.00000000000000	0.00000000000000	
5.08164600000000	-0.41740400000000	725.11404900000002	44.39686100000000	0.19526600000000	0.00000000000000	0.11314200000000	0.00000000000000	0.00000000000000	0.00000000000000	0.00000000000000	0.00000000000000	0.00000000000000	0.00000000000000	18.13906700000000	0.00000000000000	0.00000000000000	0.00000000000000	0.00000000000000	
5.08331700000000	-0.93577200000000	726.70828900000004	44.48155600000000	0.19421800000000	0.00000000000000	0.11313200000000	0.00000000000000	0.00000000000000	0.00000000000000	0.00000000000000	0.00000000000000	0.00000000000000	0.00000000000000	18.23967200000000	0.00000000000000	0.00000000000000	0.00000000000000	0.00000000000000	
